<?xml version="1.0" standalone="no"?><svg xmlns="http://www.w3.org/2000/svg" viewBox="0 0 1440 320"><path fill="#540d6e" fill-opacity="1" d="M0,96L12.6,96C25.3,96,51,96,76,101.3C101.1,107,126,117,152,144C176.8,171,202,213,227,224C252.6,235,278,213,303,170.7C328.4,128,354,64,379,48C404.2,32,429,64,455,101.3C480,139,505,181,531,186.7C555.8,192,581,160,606,176C631.6,192,657,256,682,272C707.4,288,733,256,758,218.7C783.2,181,808,139,834,128C858.9,117,884,139,909,138.7C934.7,139,960,117,985,106.7C1010.5,96,1036,96,1061,117.3C1086.3,139,1112,181,1137,197.3C1162.1,213,1187,203,1213,213.3C1237.9,224,1263,256,1288,250.7C1313.7,245,1339,203,1364,170.7C1389.5,139,1415,117,1427,106.7L1440,96L1440,320L1427.4,320C1414.7,320,1389,320,1364,320C1338.9,320,1314,320,1288,320C1263.2,320,1238,320,1213,320C1187.4,320,1162,320,1137,320C1111.6,320,1086,320,1061,320C1035.8,320,1011,320,985,320C960,320,935,320,909,320C884.2,320,859,320,834,320C808.4,320,783,320,758,320C732.6,320,707,320,682,320C656.8,320,632,320,606,320C581.1,320,556,320,531,320C505.3,320,480,320,455,320C429.5,320,404,320,379,320C353.7,320,328,320,303,320C277.9,320,253,320,227,320C202.1,320,177,320,152,320C126.3,320,101,320,76,320C50.5,320,25,320,13,320L0,320Z"></path></svg>