<?xml version="1.0" standalone="no"?><svg xmlns="http://www.w3.org/2000/svg" viewBox="0 0 1440 320"><path fill="#070600" fill-opacity="1" d="M0,160L12.6,160C25.3,160,51,160,76,170.7C101.1,181,126,203,152,192C176.8,181,202,139,227,144C252.6,149,278,203,303,218.7C328.4,235,354,213,379,213.3C404.2,213,429,235,455,202.7C480,171,505,85,531,96C555.8,107,581,213,606,240C631.6,267,657,213,682,181.3C707.4,149,733,139,758,144C783.2,149,808,171,834,202.7C858.9,235,884,277,909,266.7C934.7,256,960,192,985,165.3C1010.5,139,1036,149,1061,133.3C1086.3,117,1112,75,1137,74.7C1162.1,75,1187,117,1213,144C1237.9,171,1263,181,1288,181.3C1313.7,181,1339,171,1364,160C1389.5,149,1415,139,1427,133.3L1440,128L1440,320L1427.4,320C1414.7,320,1389,320,1364,320C1338.9,320,1314,320,1288,320C1263.2,320,1238,320,1213,320C1187.4,320,1162,320,1137,320C1111.6,320,1086,320,1061,320C1035.8,320,1011,320,985,320C960,320,935,320,909,320C884.2,320,859,320,834,320C808.4,320,783,320,758,320C732.6,320,707,320,682,320C656.8,320,632,320,606,320C581.1,320,556,320,531,320C505.3,320,480,320,455,320C429.5,320,404,320,379,320C353.7,320,328,320,303,320C277.9,320,253,320,227,320C202.1,320,177,320,152,320C126.3,320,101,320,76,320C50.5,320,25,320,13,320L0,320Z"></path></svg>